<svg xmlns="http://www.w3.org/2000/svg" width="42" height="42" viewBox="0 0 42 42">
    <defs>
        <clipPath id="lxvwa">
            <path fill="#fff" d="M21 0c11.598 0 21 9.402 21 21s-9.402 21-21 21S0 32.598 0 21 9.402 0 21 0z"/>
        </clipPath>
    </defs>
    <g>
        <g>
            <path fill="none" stroke="#3e6eb1" stroke-miterlimit="50" stroke-width="2"
                  d="M21 0c11.598 0 21 9.402 21 21s-9.402 21-21 21S0 32.598 0 21 9.402 0 21 0z"
                  clip-path="url(&quot;#lxvwa&quot;)"/>
        </g>
        <g>
            <path fill="#3e6eb1"
                  d="M17.618 17.622h1.723v-1.709c0-.753.019-1.914.555-2.634.565-.762 1.34-1.28 2.674-1.28 2.174 0 3.089.317 3.089.317l-.43 2.604s-.719-.212-1.389-.212-1.27.245-1.27.928v1.986h2.748l-.192 2.543H22.57V29h-3.229v-8.835h-1.723z"/>
        </g>
    </g>
</svg>