<svg xmlns="http://www.w3.org/2000/svg" width="20" height="36" viewBox="0 0 20 36"><g><g><path fill="#fb2539" d="M8.043 32.636c0 1.951-1.514 3.377-4.013 3.377-1.922 0-3.334-.88-4.03-1.935l.833-.914c.663.914 1.82 1.547 3.163 1.547 1.649 0 2.653-.844 2.653-2.197 0-1.46-1.157-2.075-2.824-2.075-.475 0-1.002 0-1.172.016V29.12c.187.018.714.018 1.172.018 1.429 0 2.637-.58 2.637-1.935 0-1.301-1.157-2.005-2.534-2.005-1.242 0-2.16.493-2.993 1.424l-.783-.913c.817-1.02 2.126-1.812 3.878-1.812 2.176 0 3.843 1.143 3.843 3.13 0 1.688-1.378 2.532-2.45 2.725 1.039.089 2.62 1.003 2.62 2.884zM20 29.946c0 3.34-2.296 5.856-5.816 5.856h-3.877V24.073h3.877c3.52 0 5.816 2.55 5.816 5.873zm-1.463 0c0-2.531-1.547-4.571-4.353-4.571H11.72V34.5h2.465c2.755 0 4.353-2.04 4.353-4.554zm.522-13.286l-8.905 5.282-.023-.021a.725.725 0 0 1-.447-.095l-8.274-4.972a.753.753 0 0 1-.36-.647L1.023 5.93c-.001-.227.095-.437.263-.58l.098-.075L10.037.11a.715.715 0 0 1 .726 0l8.272 4.97c.2.12.332.333.356.57l.005.077.028 10.282c0 .27-.14.52-.364.65zM17.95 7.024l-7.208 4.302.024 8.556 7.208-4.303zm-7.553-5.4L3.19 5.925l6.829 4.103 7.207-4.303zm-7.902 14.15l6.822 4.1-.022-8.547-6.822-4.1z"/></g></g></svg>