<svg xmlns="http://www.w3.org/2000/svg" width="18" height="16" viewBox="0 0 18 16"><g><g><path fill="#333" d="M17.303 10.926c-.323.406-.66.491-.886.491h-3.791c.126.633.1 1.579-.486 2.863-.71 1.554-1.74 1.742-2.292 1.717-.842-.039-1.531-.59-1.71-1.102-.194-.549-.177-1.796-.158-2.372L6.316 9.49l-.121-.048c-.083.455-.413 1.19-1.041 1.19H.95c-.69 0-.948-.856-.948-1.395V.883c0-.208.069-.885.948-.885h4.204c.986 0 1.063.677 1.063.885v.67c.657-.34 1.62-.77 2.293-.77h5.592c.018 0 .036.003.053.005 1.395.056 1.905.79 2.084 1.237.354.879 1.585 5.943 1.729 6.536.13.621-.192 1.77-.665 2.365zM5.016 1.219H1.203v8.019c0 .044.01.11.024.174h3.725a.777.777 0 0 0 .065-.174zm11.782 7.615c-.373-1.537-1.399-5.673-1.67-6.347-.13-.321-.513-.484-1.141-.484H8.51c-.483 0-1.606.536-2.293.937v5.2l.938.374 2.039 3.716-.008.173c-.034.778-.014 1.78.078 2.069.061.096.356.32.712.306.517-.023.87-.563 1.075-1.012.8-1.751.259-2.5.248-2.517l.042-.038a.612.612 0 0 1-.153-.404c0-.338.268-.61.6-.61h4.552c.231-.218.506-1.108.458-1.363z"/></g></g></svg>