<svg xmlns="http://www.w3.org/2000/svg" width="42" height="42" viewBox="0 0 42 42"><defs><clipPath id="4y95a"><path fill="#fff" d="M21 0c11.598 0 21 9.402 21 21s-9.402 21-21 21S0 32.598 0 21 9.402 0 21 0z"/></clipPath></defs><g><g><path fill="none" stroke="#dc4e41" stroke-miterlimit="50" stroke-width="2" d="M21 0c11.598 0 21 9.402 21 21s-9.402 21-21 21S0 32.598 0 21 9.402 0 21 0z" clip-path="url(&quot;#4y95a&quot;)"/></g><g><path fill="#dc4e41" d="M12.003 20.65c.06-3.607 3.371-6.767 6.973-6.646 1.726-.08 3.348.672 4.67 1.728a24.95 24.95 0 0 1-1.772 1.84c-1.59-1.1-3.85-1.415-5.438-.145-2.274 1.575-2.377 5.293-.19 6.988 2.126 1.933 6.145.974 6.733-1.985-1.332-.02-2.668 0-4-.044-.003-.796-.006-1.592-.003-2.387 2.227-.007 4.453-.01 6.683.006.134 1.873-.113 3.865-1.262 5.414-1.739 2.45-5.23 3.166-7.955 2.116-2.734-1.043-4.67-3.935-4.44-6.884zm18-2.66h1.985c.004.664.007 1.333.014 1.999.664.006 1.332.006 1.996.013v1.99l-1.996.016c-.007.669-.01 1.334-.014 2h-1.99c-.006-.666-.006-1.331-.012-1.996l-1.997-.02v-1.99c.665-.007 1.329-.01 1.997-.013.003-.67.01-1.335.016-2z"/></g></g></svg>