<svg xmlns="http://www.w3.org/2000/svg" width="42" height="42" viewBox="0 0 42 42">
    <defs>
        <linearGradient id="aaiza" x1="3" x2="39" y1="42" y2="0" gradientUnits="userSpaceOnUse">
            <stop offset="0" stop-color="#fa9d3e"/>
            <stop offset=".34" stop-color="#f05e47"/>
            <stop offset=".73" stop-color="#dd2d73"/>
            <stop offset="1" stop-color="#ae32a7"/>
        </linearGradient>
        <clipPath id="aaizb">
            <path fill="#fff" d="M21 0c11.598 0 21 9.402 21 21s-9.402 21-21 21S0 32.598 0 21 9.402 0 21 0z"/>
        </clipPath>
        <linearGradient id="aaizc" x1="14" x2="29" y1="29" y2="12" gradientUnits="userSpaceOnUse">
            <stop offset="0" stop-color="#fa9d3e"/>
            <stop offset=".34" stop-color="#f05e47"/>
            <stop offset=".73" stop-color="#dd2d73"/>
            <stop offset="1" stop-color="#ae32a7"/>
        </linearGradient>
    </defs>
    <g>
        <g>
            <path fill="none" stroke="url(#aaizc)" stroke-miterlimit="50" stroke-width="2"
                  d="M21 0c11.598 0 21 9.402 21 21s-9.402 21-21 21S0 32.598 0 21 9.402 0 21 0z"
                  clip-path="url(#aaizb)"/>
        </g>
        <g>
            <path fill="#85b8fc"
                  d="M21.5 13.531c-2.27 0-2.538.009-3.435.05-.829.038-1.279.176-1.578.293-.397.154-.68.338-.978.635-.297.298-.481.581-.635.978-.117.3-.255.75-.293 1.578-.04.896-.05 1.165-.05 3.435s.01 2.538.05 3.434c.038.83.176 1.28.293 1.579.154.397.338.68.635.977.298.298.581.482.978.636.3.116.75.255 1.578.293.896.04 1.165.05 3.435.05s2.539-.01 3.435-.05c.828-.038 1.278-.177 1.578-.293.397-.154.68-.338.977-.636.298-.297.482-.58.636-.977.117-.3.255-.75.293-1.579.04-.896.05-1.165.05-3.434 0-2.27-.01-2.539-.05-3.435-.038-.829-.176-1.279-.293-1.578a2.634 2.634 0 0 0-.636-.978 2.636 2.636 0 0 0-.977-.635c-.3-.117-.75-.255-1.578-.293-.897-.041-1.165-.05-3.435-.05 0 0 2.27 0 0 0zm0-1.531c2.308 0 2.598.01 3.505.051.904.041 1.522.185 2.063.395a4.167 4.167 0 0 1 1.505.98c.473.473.764.947.98 1.506.21.54.354 1.159.396 2.063.041.907.051 1.196.051 3.505 0 2.308-.01 2.598-.051 3.504-.042.905-.185 1.523-.395 2.064a4.165 4.165 0 0 1-.98 1.505 4.165 4.165 0 0 1-1.506.98c-.54.21-1.159.354-2.064.396-.906.041-1.196.05-3.504.05-2.309 0-2.598-.009-3.505-.05-.904-.042-1.522-.185-2.063-.395a4.165 4.165 0 0 1-1.505-.98 4.164 4.164 0 0 1-.98-1.506c-.211-.541-.355-1.159-.396-2.064C13.01 23.098 13 22.808 13 20.5c0-2.309.01-2.598.051-3.505.041-.904.185-1.522.395-2.063a4.167 4.167 0 0 1 .98-1.506 4.167 4.167 0 0 1 1.506-.98c.54-.21 1.159-.354 2.063-.395.907-.041 1.196-.051 3.505-.051 0 0-2.309 0 0 0zm0 4.135a4.365 4.365 0 1 1 0 8.73 4.365 4.365 0 0 1 0-8.73s-2.41 0 0 0zm0 7.198a2.833 2.833 0 1 0 0-5.666 2.833 2.833 0 0 0 0 5.666s-1.565 0 0 0zm5.557-7.37a1.02 1.02 0 1 1-2.04 0 1.02 1.02 0 0 1 2.04 0"/>
            <path fill="url(#aaizc)"
                  d="M21.5 13.531c-2.27 0-2.538.009-3.435.05-.829.038-1.279.176-1.578.293-.397.154-.68.338-.978.635-.297.298-.481.581-.635.978-.117.3-.255.75-.293 1.578-.04.896-.05 1.165-.05 3.435s.01 2.538.05 3.434c.038.83.176 1.28.293 1.579.154.397.338.68.635.977.298.298.581.482.978.636.3.116.75.255 1.578.293.896.04 1.165.05 3.435.05s2.539-.01 3.435-.05c.828-.038 1.278-.177 1.578-.293.397-.154.68-.338.977-.636.298-.297.482-.58.636-.977.117-.3.255-.75.293-1.579.04-.896.05-1.165.05-3.434 0-2.27-.01-2.539-.05-3.435-.038-.829-.176-1.279-.293-1.578a2.634 2.634 0 0 0-.636-.978 2.636 2.636 0 0 0-.977-.635c-.3-.117-.75-.255-1.578-.293-.897-.041-1.165-.05-3.435-.05 0 0 2.27 0 0 0zm0-1.531c2.308 0 2.598.01 3.505.051.904.041 1.522.185 2.063.395a4.167 4.167 0 0 1 1.505.98c.473.473.764.947.98 1.506.21.54.354 1.159.396 2.063.041.907.051 1.196.051 3.505 0 2.308-.01 2.598-.051 3.504-.042.905-.185 1.523-.395 2.064a4.165 4.165 0 0 1-.98 1.505 4.165 4.165 0 0 1-1.506.98c-.54.21-1.159.354-2.064.396-.906.041-1.196.05-3.504.05-2.309 0-2.598-.009-3.505-.05-.904-.042-1.522-.185-2.063-.395a4.165 4.165 0 0 1-1.505-.98 4.164 4.164 0 0 1-.98-1.506c-.211-.541-.355-1.159-.396-2.064C13.01 23.098 13 22.808 13 20.5c0-2.309.01-2.598.051-3.505.041-.904.185-1.522.395-2.063a4.167 4.167 0 0 1 .98-1.506 4.167 4.167 0 0 1 1.506-.98c.54-.21 1.159-.354 2.063-.395.907-.041 1.196-.051 3.505-.051 0 0-2.309 0 0 0zm0 4.135a4.365 4.365 0 1 1 0 8.73 4.365 4.365 0 0 1 0-8.73s-2.41 0 0 0zm0 7.198a2.833 2.833 0 1 0 0-5.666 2.833 2.833 0 0 0 0 5.666s-1.565 0 0 0zm5.557-7.37a1.02 1.02 0 1 1-2.04 0 1.02 1.02 0 0 1 2.04 0"/>
        </g>
    </g>
</svg>