<svg xmlns="http://www.w3.org/2000/svg" width="18" height="16" viewBox="0 0 18 16"><g><g><path fill="#333" d="M17.968 7.438c-.144.593-1.375 5.657-1.729 6.536-.18.446-.689 1.181-2.084 1.237-.017.002-.035.006-.053.006H8.51c-.673 0-1.636-.43-2.293-.771v.67c0 .208-.077.885-1.063.885H.95c-.88 0-.948-.677-.948-.885V6.76c0-.539.258-1.394.948-1.394h4.204c.628 0 .958.735 1.04 1.19l.122-.05L7.98 3.477c-.02-.575-.036-1.823.157-2.372C8.317.592 9.006.04 9.848.002c.552-.025 1.582.163 2.292 1.717.586 1.284.612 2.23.486 2.863h3.79c.227 0 .564.085.887.492.473.593.796 1.743.665 2.364zM5.017 6.761a.796.796 0 0 0-.065-.174H1.227a.914.914 0 0 0-.024.174v8.02h3.814zm11.323-.958h-4.552a.611.611 0 1 1-.447-1.015L11.3 4.75c.011-.017.551-.765-.248-2.517-.205-.449-.558-.99-1.075-1.012-.356-.014-.65.21-.713.306-.09.288-.11 1.29-.077 2.07l.008.173-2.04 3.715-.937.373v5.2c.687.402 1.81.938 2.293.938h5.477c.628 0 1.012-.163 1.14-.484.272-.674 1.298-4.81 1.67-6.347.05-.256-.226-1.145-.457-1.362z"/></g></g></svg>