<svg xmlns="http://www.w3.org/2000/svg" width="11" height="14" viewBox="0 0 11 14"><g><g><path fill="#fb2539" d="M11 5.938v6.85C11 13.453 10.48 14 9.85 14H1.15c-.63 0-1.15-.548-1.15-1.211v-6.85c0-.664.52-1.212 1.15-1.212h.85V2.571C1.998 1.16 3.098 0 4.436 0h2.33c1.337 0 2.439 1.16 2.439 2.57v.134c0 .315-.252.58-.551.58-.3 0-.55-.265-.55-.58V2.57c0-.78-.599-1.41-1.339-1.41H4.437c-.739 0-1.337.63-1.337 1.41v2.14h6.75c.63 0 1.15.547 1.15 1.227zm-1.086 6.85v-6.85c0-.016-.016-.05-.047-.05H1.164c-.015 0-.047.017-.047.05v6.85c0 .017.016.05.047.05h8.687c.016 0 .047-.016.047-.05zm-4.406-4.66c.686 0 1.243.586 1.243 1.31 0 .724-.557 1.31-1.243 1.31-.687 0-1.244-.586-1.244-1.31 0-.724.557-1.31 1.244-1.31z"/></g></g></svg>