<svg xmlns="http://www.w3.org/2000/svg" width="46" height="46" viewBox="0 0 46 46"><g><g><path fill="#fb2539" d="M23.002 45.98C10.307 45.98-.02 35.664-.02 22.985-.02 10.308 10.307-.007 23.002-.007c12.694 0 23.021 10.315 23.021 22.993 0 12.68-10.327 22.993-23.021 22.993zm0-43.32c-11.223 0-20.353 9.118-20.353 20.326 0 11.21 9.13 20.328 20.353 20.328 11.222 0 20.352-9.119 20.352-20.328 0-11.208-9.13-20.327-20.352-20.327zm-6.2 30.121v-19.59l16.986 9.795zM19.47 17.81v10.353l8.979-5.177z"/></g></g></svg>