<svg xmlns="http://www.w3.org/2000/svg" width="19" height="21" viewBox="0 0 19 21"><g><g><path fill="#333" d="M18.978 10.725c0 1.94-1.61 3.518-3.59 3.518a3.615 3.615 0 0 1-2.505-1.004L7.05 16.504c.071.276.12.56.12.858 0 1.94-1.61 3.519-3.59 3.519-1.98 0-3.592-1.579-3.592-3.519 0-1.94 1.611-3.517 3.591-3.517 1.245 0 2.343.625 2.987 1.57l5.612-3.143a3.416 3.416 0 0 1-.381-1.547c0-.397.082-.773.207-1.13L6.376 6.55a3.597 3.597 0 0 1-2.797 1.337C1.6 7.886-.01 6.31-.01 4.368c0-1.94 1.61-3.518 3.59-3.518 1.98 0 3.592 1.578 3.592 3.518 0 .404-.084.785-.212 1.146l5.622 3.043a3.6 3.6 0 0 1 2.807-1.35c1.98 0 3.59 1.578 3.59 3.518zM5.964 4.368c0-1.287-1.07-2.335-2.385-2.335-1.314 0-2.384 1.048-2.384 2.335 0 1.289 1.07 2.337 2.384 2.337 1.315 0 2.385-1.048 2.385-2.337zm0 12.994c0-1.287-1.07-2.336-2.385-2.336-1.314 0-2.384 1.049-2.384 2.336 0 1.29 1.07 2.337 2.384 2.337 1.315 0 2.385-1.048 2.385-2.337zm11.808-6.637c0-1.288-1.07-2.336-2.384-2.336-1.316 0-2.386 1.048-2.386 2.336 0 1.288 1.07 2.336 2.386 2.336 1.314 0 2.384-1.048 2.384-2.336z"/></g></g></svg>