<svg xmlns="http://www.w3.org/2000/svg" width="42" height="42" viewBox="0 0 42 42"><defs><clipPath id="95qxa"><path fill="#fff" d="M21 0c11.598 0 21 9.402 21 21s-9.402 21-21 21S0 32.598 0 21 9.402 0 21 0z"/></clipPath></defs><g><g><path fill="none" stroke="#00acec" stroke-miterlimit="50" stroke-width="2" d="M21 0c11.598 0 21 9.402 21 21s-9.402 21-21 21S0 32.598 0 21 9.402 0 21 0z" clip-path="url(&quot;#95qxa&quot;)"/></g><g><path fill="#00acec" d="M30.01 16.546a7.322 7.322 0 0 1-2.003.516 3.33 3.33 0 0 0 1.533-1.815 7.238 7.238 0 0 1-2.216.796 3.585 3.585 0 0 0-2.545-1.037c-1.926 0-3.487 1.47-3.487 3.282 0 .258.03.508.09.748-2.9-.137-5.469-1.443-7.19-3.43a3.13 3.13 0 0 0-.472 1.652c0 1.137.616 2.142 1.552 2.731a3.654 3.654 0 0 1-1.58-.41v.04c0 1.592 1.201 2.918 2.798 3.219-.293.077-.6.116-.92.116-.224 0-.443-.02-.655-.059.443 1.304 1.73 2.253 3.257 2.279a7.279 7.279 0 0 1-4.331 1.405c-.282 0-.56-.015-.833-.045a10.335 10.335 0 0 0 5.347 1.474c6.417 0 9.924-5 9.924-9.339 0-.142-.003-.284-.01-.424a6.854 6.854 0 0 0 1.74-1.7"/></g></g></svg>