<svg xmlns="http://www.w3.org/2000/svg" width="42" height="42" viewBox="0 0 42 42"><defs><clipPath id="zus7a"><path fill="#fff" d="M21 0c11.598 0 21 9.402 21 21s-9.402 21-21 21S0 32.598 0 21 9.402 0 21 0z"/></clipPath></defs><g><g><path fill="none" stroke="#4c76a6" stroke-miterlimit="50" stroke-width="2" d="M21 0c11.598 0 21 9.402 21 21s-9.402 21-21 21S0 32.598 0 21 9.402 0 21 0z" clip-path="url(&quot;#zus7a&quot;)"/></g><g><path fill="#4c76a6" d="M28.021 23.71s1.456 1.537 1.816 2.248c.01.015.014.027.016.034.147.262.183.468.11.62-.12.251-.532.377-.672.388H26.72c-.179 0-.551-.05-1.005-.385-.347-.259-.691-.685-1.025-1.102-.499-.618-.93-1.155-1.366-1.155-.056 0-.11.01-.162.029-.33.111-.75.615-.75 1.955 0 .42-.31.658-.526.658h-1.178c-.402 0-2.492-.15-4.345-2.239-2.27-2.557-4.31-7.686-4.33-7.732-.126-.332.14-.513.428-.513h2.597c.349 0 .462.226.541.428.092.232.432 1.159.99 2.2.904 1.696 1.46 2.386 1.903 2.386a.45.45 0 0 0 .237-.068c.58-.34.472-2.553.445-3.009 0-.088 0-.988-.298-1.423-.212-.311-.574-.433-.793-.477a.964.964 0 0 1 .342-.31c.397-.212 1.114-.243 1.826-.243h.395c.773.011.972.064 1.253.14.565.145.576.536.527 1.87-.015.38-.03.81-.03 1.315 0 .107-.005.228-.005.35-.017.684-.04 1.454.413 1.771a.35.35 0 0 0 .195.06c.157 0 .625 0 1.897-2.333a18.01 18.01 0 0 0 1.02-2.337c.025-.051.1-.194.192-.252a.41.41 0 0 1 .213-.054h3.055c.333 0 .559.054.603.189.074.218-.014.885-1.41 2.901-.234.336-.44.626-.621.88-1.265 1.774-1.265 1.864.074 3.21z"/></g></g></svg>