<svg xmlns="http://www.w3.org/2000/svg" width="42" height="42" viewBox="0 0 42 42"><defs><clipPath id="nrnea"><path fill="#fff" d="M21 0c11.598 0 21 9.402 21 21s-9.402 21-21 21S0 32.598 0 21 9.402 0 21 0z"/></clipPath></defs><g><g><path fill="none" stroke="#e35358" stroke-miterlimit="50" stroke-width="2" d="M21 0c11.598 0 21 9.402 21 21s-9.402 21-21 21S0 32.598 0 21 9.402 0 21 0z" clip-path="url(&quot;#nrnea&quot;)"/></g><g><path fill="#e35358" d="M21.5 14c8.354 0 8.5.738 8.5 6.5 0 5.762-.146 6.5-8.5 6.5s-8.5-.738-8.5-6.5c0-5.762.146-6.5 8.5-6.5zm2.724 6.218l-3.816-1.77c-.334-.153-.608.02-.608.386v3.332c0 .366.274.539.608.385l3.816-1.77c.334-.155.334-.408 0-.563z"/></g></g></svg>